<?xml version="1.0" encoding="utf-8"?>
<!-- Generator: Adobe Illustrator 27.5.0, SVG Export Plug-In . SVG Version: 6.00 Build 0)  -->
<svg version="1.1" id="Layer_1" xmlns="http://www.w3.org/2000/svg" xmlns:xlink="http://www.w3.org/1999/xlink" x="0px" y="0px"
	 viewBox="0 0 500 500" style="enable-background:new 0 0 500 500;" xml:space="preserve">
<g>
	<path style="fill:#7FD1AE;" d="M242.8,401.4c-11.1,0-22.2-4.2-30.7-12.7L89.9,266.5c-16.9-16.9-16.9-44.5,0-61.4
		c8.2-8.2,19.1-12.7,30.7-12.7c11.6,0,22.5,4.5,30.7,12.7l91.5,91.4L439,100.4C394.8,44.7,326.6,9,250,9C116.9,9,9,116.9,9,250
		s107.9,241,241,241s241-107.9,241-241c0-23.9-3.5-47-10-68.8L273.5,388.7C265,397.2,253.9,401.4,242.8,401.4z"/>
</g>
</svg>
